<?xml version="1.0" encoding="utf-8"?>
<!-- Generator: Adobe Illustrator 25.0.1, SVG Export Plug-In . SVG Version: 6.00 Build 0)  -->
<svg version="1.1" id="Capa_1" xmlns="http://www.w3.org/2000/svg" xmlns:xlink="http://www.w3.org/1999/xlink" x="0px" y="0px"
	 viewBox="0 0 132.8 98.6" style="enable-background:new 0 0 132.8 98.6;" xml:space="preserve">
<style type="text/css">
	.st0{fill:#F3B920;}
	.st1{fill:#413787;}
</style>
<g>
	<path class="st0" d="M98.1,0.1c2.7,2.7,4.4,6.5,4.4,10.6c0,4.3-1.8,8.1-4.7,10.9c7.6,1,13.5,7.6,13.5,15.5v24.5
		c0,8.6-7,15.6-15.6,15.6h-51c-5.8,0.1-10.5,4.8-10.5,10.7c0,5.9,4.7,10.6,10.5,10.7h51c20.4,0,37-16.6,37-37V37
		C132.8,17.4,117.4,1.3,98.1,0.1z"/>
	<path class="st1" d="M86.3,0H37C16.6,0,0,16.6,0,37v24.5c0,19.3,14.9,35.2,33.8,36.9c-3.1-2.8-5.1-6.8-5.1-11.3
		c0-4.1,1.7-7.8,4.3-10.5c-6.7-1.8-11.6-7.9-11.6-15.1V37c0-8.6,7-15.6,15.6-15.6h49c5.9,0,10.7-4.8,10.7-10.7
		C96.8,4.8,92.1,0.1,86.3,0z"/>
</g>
</svg>
