<?xml version="1.0" encoding="utf-8"?>
<!-- Generator: Adobe Illustrator 25.0.1, SVG Export Plug-In . SVG Version: 6.00 Build 0)  -->
<svg version="1.1" id="Capa_1" xmlns="http://www.w3.org/2000/svg" xmlns:xlink="http://www.w3.org/1999/xlink" x="0px" y="0px"
	 viewBox="0 0 98.3 59.7" style="enable-background:new 0 0 98.3 59.7;" xml:space="preserve">
<style type="text/css">
	.st0{fill:#FFFFFF;}
	.st1{opacity:0.6;fill:#FFFFFF;}
	.st2{opacity:0.8;fill:#FFFFFF;}
</style>
<g>
	<g>
		<path class="st0" d="M29.8,7.6V0h-8.9c-3.4,0-6,0.3-7.9,0.9c-1.9,0.6-3.3,1.5-4.1,2.8C8.1,5,7.7,6.8,7.7,9.3v10.6v0.3
			c0,1.9-0.6,3.3-1.9,4.2c-1.2,0.9-3.2,1.4-5.9,1.4v8c2.5,0,4.4,0.5,5.7,1.4c1.3,0.9,2,2.5,2,4.6v10.5c0,2.5,0.4,4.4,1.2,5.7
			c0.8,1.3,2.2,2.2,4.1,2.8c1.9,0.6,4.5,0.9,7.9,0.9h8.9v-7.6h-8.9c-2,0-3.4-0.4-4.1-1.2c-0.8-0.8-1.1-1.9-1.1-3.5v-10v-0.4
			c0-1.9-0.6-3.5-1.8-4.7c-1.2-1.2-2.9-2-5.2-2.4v-0.4c4.6-0.8,6.9-3.2,7-7.4v-10c0-1.6,0.4-2.7,1.1-3.5c0.7-0.8,2.1-1.2,4.1-1.2v0
			H29.8z"/>
		<path class="st0" d="M92.4,24.5c-1.2-0.9-1.9-2.3-1.9-4.2v-0.3V9.3c0-2.5-0.4-4.3-1.2-5.6c-0.8-1.3-2.2-2.2-4.1-2.8
			C83.4,0.3,80.7,0,77.4,0h-8.9v7.6h8.9v0c2,0.1,3.4,0.5,4.1,1.2c0.7,0.8,1.1,1.9,1.1,3.5v10c0.1,4.2,2.5,6.7,7,7.4v0.4
			c-2.3,0.4-4.1,1.2-5.2,2.4c-1.2,1.2-1.8,2.7-1.8,4.7v0.4v10c0,1.6-0.4,2.8-1.1,3.5c-0.8,0.8-2.1,1.2-4.1,1.2h-8.9v7.6h8.9
			c3.4,0,6-0.3,7.9-0.9c1.9-0.6,3.3-1.5,4.1-2.8c0.8-1.3,1.2-3.2,1.2-5.7V39.9c0-2.2,0.7-3.7,2-4.6c1.3-0.9,3.2-1.4,5.7-1.4v-8
			C95.6,25.9,93.7,25.4,92.4,24.5z"/>
	</g>
	<g>
		<path class="st1" d="M37.7,30.3c0,3.2-2.6,5.7-5.7,5.7s-5.7-2.6-5.7-5.7c0-3.2,2.6-5.7,5.7-5.7S37.7,27.2,37.7,30.3z"/>
		<path class="st2" d="M54.9,30.3c0,3.2-2.6,5.7-5.7,5.7c-3.2,0-5.7-2.6-5.7-5.7c0-3.2,2.6-5.7,5.7-5.7
			C52.3,24.6,54.9,27.2,54.9,30.3z"/>
		<path class="st0" d="M72,30.3c0,3.2-2.6,5.7-5.7,5.7s-5.7-2.6-5.7-5.7c0-3.2,2.6-5.7,5.7-5.7S72,27.2,72,30.3z"/>
	</g>
</g>
</svg>
